<svg width="16" height="16" viewBox="0 0 16 16" fill="none" xmlns="http://www.w3.org/2000/svg">
<path d="M12.667 1.33334C13.1972 1.33352 13.7061 1.54437 14.0811 1.91928C14.4558 2.29424 14.6669 2.80319 14.667 3.33334V10.0003C14.6669 10.5306 14.4559 11.0394 14.0811 11.4144C13.7061 11.7893 13.1972 12.0002 12.667 12.0003H4.94238L2.47168 14.472C2.2812 14.6625 1.99407 14.7193 1.74512 14.6165C1.4961 14.5134 1.33314 14.2698 1.33301 14.0003V3.33334C1.33309 2.80303 1.54395 2.29428 1.91895 1.91928C2.29394 1.54429 2.80269 1.33343 3.33301 1.33334H12.667ZM5.66504 7.67026C5.29778 7.67026 5.00002 7.96805 5 8.3353C5.00018 8.70241 5.29788 9.00034 5.66504 9.00034H8.33496C8.70196 9.00015 8.99982 8.7023 9 8.3353C8.99998 7.96816 8.70206 7.67044 8.33496 7.67026H5.66504ZM5.66504 4.67026C5.29778 4.67026 5.00002 4.96805 5 5.3353C5.00018 5.70241 5.29788 6.00034 5.66504 6.00034H10.335C10.702 6.00015 10.9998 5.7023 11 5.3353C11 4.96816 10.7021 4.67044 10.335 4.67026H5.66504Z" fill="white"/>
</svg>
